<svg width="96" height="96" viewBox="0 0 96 96" fill="none" xmlns="http://www.w3.org/2000/svg">
    <rect width="96" height="96" fill="#FB9C04"/>
    <path d="M54.796 20.7205C56.1872 20.9718 57.3283 21.7253 58.2202 22.9809C59.005 24.0933 59.5402 25.4926 59.8252 27.1788C60.0754 28.7218 60.0566 30.2643 59.7716 31.8073C59.3436 34.3546 58.4875 36.4896 57.2034 38.2118C55.6692 40.293 53.7433 41.3333 51.4248 41.3333C50.8537 41.3333 50.2301 41.1541 49.5519 40.7951C49.088 40.5083 48.5711 40.3646 48 40.3646C47.4289 40.3646 46.9125 40.5083 46.4481 40.7951C45.7699 41.1541 45.1463 41.3333 44.5752 41.3333C42.2567 41.3333 40.3308 40.293 38.7966 38.2118C37.5125 36.4896 36.6564 34.3546 36.2284 31.8073C35.9434 30.2643 35.9246 28.7218 36.1748 27.1788C36.4598 25.4926 36.995 24.0933 37.7798 22.9809C38.6717 21.7253 39.8128 20.9718 41.204 20.7205C42.0601 20.5768 43.237 20.7027 44.7354 21.0972C46.0195 21.4562 47.1075 21.8867 47.9995 22.3889C48.8914 21.8867 49.9794 21.4562 51.2635 21.0972C52.7624 20.7027 53.9399 20.5768 54.796 20.7205ZM51.8528 18.5139C51.3535 18.9805 50.693 19.3212 49.8728 19.5365C49.3018 19.7157 48.6782 19.8055 48 19.8055L47.1975 19.7517C47.1263 19.2496 47.1263 18.6753 47.1975 18.0295C47.3405 16.7378 47.7504 15.7513 48.428 15.0694C48.9273 14.6028 49.5878 14.2621 50.408 14.0469C50.9791 13.8676 51.6026 13.7778 52.2808 13.7778L53.0833 13.8316L53.1369 14.6389C53.1369 15.3208 53.0474 15.9483 52.8696 16.5226C52.6558 17.3476 52.3173 18.0117 51.8528 18.5139Z" fill="white"/>
    <path fill-rule="evenodd" clip-rule="evenodd" d="M22.3334 42.2222C21.7811 42.2222 21.3334 42.6699 21.3334 43.2222V45.3333H25.3333C26.2222 50.6667 26.2222 52.4444 25.3333 57.7778H21.3334V59.8889C21.3334 60.4412 21.7811 60.8889 22.3334 60.8889H74.1112C74.6634 60.8889 75.1112 60.4412 75.1112 59.8889V43.2222C75.1112 42.6699 74.6634 42.2222 74.1112 42.2222H22.3334ZM26.2222 45.3333H72V47.1111H26.2222V45.3333ZM72 56H26.2222V57.7778H72V56ZM26.6667 52.4444H72V54.2222H26.6667V52.4444ZM72 48.8889H26.6667V50.6667H72V48.8889Z" fill="white"/>
    <path fill-rule="evenodd" clip-rule="evenodd" d="M82.1111 61.7778C82.6634 61.7778 83.1111 62.2255 83.1111 62.7778V64.8889H77.921C76.7677 70.2222 76.7677 72 77.921 77.3333H83.1111V79.4444C83.1111 79.9967 82.6634 80.4444 82.1111 80.4444H14.3333C13.781 80.4444 13.3333 79.9967 13.3333 79.4444V62.7778C13.3333 62.2255 13.781 61.7778 14.3333 61.7778H82.1111ZM76.7677 64.8889H17.3701V66.6667H76.7677V64.8889ZM17.3701 75.5556H76.7677V77.3333H17.3701V75.5556ZM76.191 72H17.37V73.7778H76.191V72ZM17.37 68.4444H76.191V70.2222H17.37V68.4444Z" fill="white"/>
</svg>
