<svg width="96" height="96" viewBox="0 0 96 96" fill="none" xmlns="http://www.w3.org/2000/svg">
<rect width="96" height="96" fill="white"/>
<path d="M69.3864 72.4546L70.2787 71.2081C70.2787 71.2081 71.349 71.9465 71.9075 72.3482C72.4963 72.7717 73.2955 73.4318 73.2955 73.4318C77.8561 74.572 82.7424 83.0417 84.5341 92H39.7424C42.0227 84.0189 43.9773 76.6894 50.6553 73.4318C50.9811 73.2729 51.3068 73.4318 51.4697 73.4318C51.6326 73.4318 52.9356 72.1288 54.2386 71.4773C54.8076 71.1928 55.2159 72.7803 55.2159 72.7803L60.9167 88.4167H63.5227L69.3864 72.4546Z" fill="#0D3858"/>
<path d="M63.4396 88.4913H60.8522L54.6425 71.4145L62.4046 73.4844L69.6494 71.932L63.4396 88.4913Z" fill="#EFF4E0"/>
<g filter="url(#filter0_d_103_146)">
<path fill-rule="evenodd" clip-rule="evenodd" d="M62.3826 74.4091C61.7311 74.4091 61.4053 74.572 61.2425 74.8977C61.2424 75.2235 61.4053 75.3864 61.4053 75.875C60.5909 77.178 60.2652 77.8296 59.7766 79.1326C59.4508 80.4356 59.125 81.25 59.7765 82.553C60.9167 81.9015 61.5682 80.7614 61.894 79.6212C62.2197 78.4811 62.2197 77.6667 62.2197 76.5265H62.7084L63.0341 79.7841C63.3599 81.0871 63.5227 81.7386 64.8258 82.553C65.3144 81.5758 65.3144 80.4356 64.9887 79.1326C64.5 77.6667 64.3371 76.8523 63.3599 75.7121C63.3599 75.3941 63.5227 75.0606 63.3599 74.7349C63.197 74.572 62.8712 74.4091 62.3826 74.4091ZM61.7311 76.3636L60.5909 78.8068C60.1023 79.7841 59.9394 80.5985 59.9394 81.7386C60.4281 81.25 60.9167 80.4356 61.2425 79.4583C61.5682 78.3182 61.7311 77.5038 61.894 76.3636H61.7311ZM63.197 76.2008H63.0341V76.6894C63.197 77.8296 63.4312 78.5755 63.6856 79.7841C63.8485 80.5985 64.1743 81.0871 64.6629 81.5758C64.8258 80.5985 64.5 79.947 64.3372 79.1326C63.8485 77.6667 63.5227 77.3409 63.197 76.2008Z" fill="#CD8B7D"/>
</g>
<path d="M68.6144 70.3795C70.6843 69.8621 71.7192 69.3446 73.2717 68.3096C72.7542 68.3096 72.2367 68.3096 71.7192 67.7921C71.7192 64.6873 71.2017 63.1348 71.2017 60.03L69.6493 60.5474L66.5444 65.7222L67.0619 69.3446L68.6144 70.3795Z" fill="#331B16"/>
<path d="M53.0901 67.7921C52.5726 68.3096 52.0551 68.3096 51.0201 68.3096C53.0901 69.3446 54.6425 70.3795 57.2299 70.897L58.7823 66.2397L55.6775 61.0649L53.6075 59.5125L53.0901 67.7921Z" fill="#331B16"/>
<path d="M57.2299 69.3446L58.2648 66.2397L66.5445 65.2048L67.062 69.8621L62.4047 73.4844L57.2299 69.3446Z" fill="#EBA581"/>
<g filter="url(#filter1_d_103_146)">
<path d="M57.2299 68.8271L62.4047 73.4844L67.5795 69.3446L70.1669 71.4145L66.027 77.1068L62.4047 73.4844L58.2648 76.5893L54.125 71.4145L57.2299 68.8271Z" fill="#F1F2E0"/>
</g>
<path d="M52.0551 56.9251C52.0551 55.8901 52.5725 55.3727 53.09 55.3727C53.6075 55.3727 53.6075 55.3727 54.125 55.8901C54.6425 56.4076 54.6425 56.9251 54.6425 57.9601L56.7124 51.2328H63.9571L70.6843 55.8901C70.6843 55.3727 71.5038 54.8637 72.2368 55.3727C72.7542 56.4076 72.644 56.8182 72.4811 57.9583C72.1553 59.4243 71.6667 60.4015 70.8523 61.053C70.3937 61.4199 69.875 61.053 69.875 61.053C69.875 61.053 69.8563 61.5824 69.6494 62.6174C69.1319 64.1698 68.0969 65.2048 67.062 66.2397C65.5095 67.7922 64.4746 68.8271 61.8872 68.8271C58.7823 67.7922 57.7473 66.7572 56.1949 64.1698C55.6774 63.1348 55.1599 62.6174 55.1599 61.0649C54.6425 61.0649 54.401 61.341 54.125 61.0649C53.09 60.03 52.5725 58.995 52.0551 56.9251Z" fill="#F8BB8E"/>
<path d="M62.9221 53.8202C66.027 55.8901 68.0969 54.8552 70.6843 55.8901C70.6843 55.8901 70.8523 55.3523 71.3409 55.1894C71.3409 53.637 71.2018 52.7853 70.1668 51.7503L65.5095 50.7153L62.9221 53.8202Z" fill="#331B16"/>
<path d="M57.2298 50.7153L54.6424 57.96C54.6424 56.4076 54.6424 55.8901 53.6074 55.3726C54.1249 53.8202 54.1249 52.2678 54.6424 51.2328L57.2298 50.7153Z" fill="#331B16"/>
<path d="M62.922 38.8133L43.2578 45.023L53.6074 49.6804H71.2017L80.5163 45.023L62.922 38.8133Z" fill="#134A73"/>
<g filter="url(#filter2_i_103_146)">
<path d="M53.913 46.0682V53.2348C57.5353 51.1649 59.8173 52.2677 62.4047 54.3376C65.5096 52.2677 67.5795 52.2677 71.2019 53.3027V46.058C64.9921 43.9881 61.1577 43.9983 53.913 46.0682Z" fill="#0D3858"/>
</g>
<circle cx="65.2614" cy="23.2614" r="10.2614" fill="#E66B63"/>
<path d="M69.9849 24.0758H60.8637C60.5049 24.0758 60.2122 24.3685 60.2122 24.7273V27.3333C60.2122 27.6921 60.5049 27.9849 60.8637 27.9849H69.9849C70.3436 27.9849 70.6364 27.6921 70.6364 27.3333V24.7273C70.6364 24.369 70.3432 24.0758 69.9849 24.0758ZM67.3788 26.519C67.1091 26.519 66.8902 26.3001 66.8902 26.0303C66.8902 25.7605 67.1091 25.5417 67.3788 25.5417C67.6486 25.5417 67.8675 25.7605 67.8675 26.0303C67.8675 26.3001 67.6496 26.519 67.3788 26.519ZM68.6819 26.519C68.4121 26.519 68.1932 26.3001 68.1932 26.0303C68.1932 25.7605 68.4121 25.5417 68.6819 25.5417C68.9516 25.5417 69.1705 25.7605 69.1705 26.0303C69.1705 26.3001 68.9526 26.519 68.6819 26.519ZM69.9849 18.8636H60.8637C60.5049 18.8636 60.2122 19.1564 60.2122 19.5152V22.1212C60.2122 22.48 60.5049 22.7727 60.8637 22.7727H69.9849C70.3436 22.7727 70.6364 22.48 70.6364 22.1212V19.5152C70.6364 19.1564 70.3432 18.8636 69.9849 18.8636ZM67.3788 21.3068C67.1091 21.3068 66.8902 21.088 66.8902 20.8182C66.8902 20.5484 67.1101 20.3296 67.3788 20.3296C67.6476 20.3296 67.8675 20.5494 67.8675 20.8182C67.8675 21.0869 67.6496 21.3068 67.3788 21.3068ZM68.6819 21.3068C68.4121 21.3068 68.1932 21.088 68.1932 20.8182C68.1932 20.5484 68.4131 20.3296 68.6819 20.3296C68.9506 20.3296 69.1705 20.5494 69.1705 20.8182C69.1705 21.0869 68.9526 21.3068 68.6819 21.3068Z" fill="white"/>
<circle cx="38.0985" cy="29.0985" r="10.0985" fill="#8CD0E7"/>
<path d="M45.1952 26.3269L38.5761 23.9721C38.2547 23.8578 37.9042 23.8578 37.5827 23.9721L30.9819 26.3269C30.7568 26.4084 30.6061 26.6224 30.6061 26.8644C30.6061 27.1064 30.7568 27.3217 30.9819 27.4017L32.3872 27.9022C32.1088 28.2699 31.9128 28.6971 31.8124 29.1576C31.5438 29.2705 31.3553 29.5357 31.3553 29.8429C31.3553 30.0745 31.468 30.2732 31.6349 30.4097L31.0535 33.8769C31.0154 34.1035 31.1914 34.3106 31.423 34.3106H32.7861C33.0176 34.3106 33.1938 34.104 33.1556 33.8771L32.5742 30.41C32.7412 30.2734 32.8538 30.0547 32.8538 29.8429C32.8538 29.6035 32.7327 29.4001 32.556 29.2637C32.6555 28.8505 32.8576 28.4768 33.1399 28.1694L37.6026 29.757C37.9241 29.8713 38.2746 29.8713 38.596 29.757L45.2151 27.4022C45.4411 27.3205 45.5909 27.1064 45.5909 26.8644C45.5909 26.6224 45.4411 26.4084 45.1952 26.3269ZM38.8267 30.4572C38.6066 30.5433 38.3537 30.5875 38.0985 30.5875C37.8428 30.5875 37.5907 30.5441 37.3493 30.4583L33.9496 29.2495L33.603 32.5724C33.603 33.5334 35.5956 34.3106 38.0985 34.3106C40.5593 34.3106 42.594 33.5334 42.594 32.5731L42.2479 29.2479L38.8267 30.4572Z" fill="white"/>
<circle cx="28.2614" cy="55.2614" r="10.2614" fill="#7C930F"/>
<path d="M24.1916 61.7859C24.1703 62.0398 24.3109 62.2634 24.493 62.2634L25.0991 62.2651C25.2528 62.2651 25.3867 62.1093 25.4056 61.8956C25.4198 61.7653 25.441 61.5971 25.4717 61.4101H31.3708C31.4015 61.5938 31.4257 61.7657 31.4375 61.8958C31.4588 62.0856 31.5858 62.2683 31.7395 62.2651L32.3532 62.2635C32.5352 62.2635 32.6769 62.0397 32.6555 61.786C32.5681 60.7741 32.1687 58.3631 30.4037 56.2361C30.0728 56.5667 29.7045 56.8873 29.298 57.1844C29.4161 57.308 29.5165 57.4357 29.6205 57.5625H27.2088C27.6106 57.0784 28.0981 56.6105 28.6959 56.1896C31.9499 53.905 32.5474 50.3432 32.657 49.0633C32.6783 48.8095 32.538 48.5855 32.356 48.5855L31.7447 48.5834C31.5911 48.5834 31.4641 48.7392 31.443 48.9529C31.4288 49.0832 31.4076 49.2514 31.3793 49.4384H25.4701C25.4418 49.2514 25.4198 49.086 25.4056 48.9524C25.3845 48.7387 25.2572 48.5801 25.1037 48.5834L24.4937 48.5869C24.3118 48.5869 24.1706 48.8102 24.192 49.0639C24.2889 50.2094 24.7836 53.1735 27.2153 55.426C24.7859 57.6763 24.2885 60.6396 24.1916 61.7859ZM28.4227 54.4538C27.9481 54.0851 27.5473 53.695 27.2088 53.2862H29.6384C29.3019 53.695 28.8973 54.0904 28.4227 54.4538ZM30.9034 51.1485C30.7923 51.4256 30.6598 51.7129 30.5063 51.9795H26.3278C26.1718 51.6891 26.0385 51.4016 25.9298 51.1245L30.9034 51.1485ZM25.9477 59.675C26.0588 59.3979 26.1886 59.1104 26.3423 58.82H30.4906C30.649 59.1104 30.7833 59.3979 30.892 59.675H25.9477Z" fill="white"/>
<defs>
<filter id="filter0_d_103_146" x="57.4004" y="74.4091" width="9.81531" height="12.1439" filterUnits="userSpaceOnUse" color-interpolation-filters="sRGB">
<feFlood flood-opacity="0" result="BackgroundImageFix"/>
<feColorMatrix in="SourceAlpha" type="matrix" values="0 0 0 0 0 0 0 0 0 0 0 0 0 0 0 0 0 0 127 0" result="hardAlpha"/>
<feOffset dy="2"/>
<feGaussianBlur stdDeviation="1"/>
<feComposite in2="hardAlpha" operator="out"/>
<feColorMatrix type="matrix" values="0 0 0 0 0 0 0 0 0 0 0 0 0 0 0 0 0 0 0.25 0"/>
<feBlend mode="normal" in2="BackgroundImageFix" result="effect1_dropShadow_103_146"/>
<feBlend mode="normal" in="SourceGraphic" in2="effect1_dropShadow_103_146" result="shape"/>
</filter>
<filter id="filter1_d_103_146" x="50.125" y="68.8271" width="24.0419" height="16.2797" filterUnits="userSpaceOnUse" color-interpolation-filters="sRGB">
<feFlood flood-opacity="0" result="BackgroundImageFix"/>
<feColorMatrix in="SourceAlpha" type="matrix" values="0 0 0 0 0 0 0 0 0 0 0 0 0 0 0 0 0 0 127 0" result="hardAlpha"/>
<feOffset dy="4"/>
<feGaussianBlur stdDeviation="2"/>
<feComposite in2="hardAlpha" operator="out"/>
<feColorMatrix type="matrix" values="0 0 0 0 0 0 0 0 0 0 0 0 0 0 0 0 0 0 0.25 0"/>
<feBlend mode="normal" in2="BackgroundImageFix" result="effect1_dropShadow_103_146"/>
<feBlend mode="normal" in="SourceGraphic" in2="effect1_dropShadow_103_146" result="shape"/>
</filter>
<filter id="filter2_i_103_146" x="53.913" y="44.5107" width="17.2889" height="9.827" filterUnits="userSpaceOnUse" color-interpolation-filters="sRGB">
<feFlood flood-opacity="0" result="BackgroundImageFix"/>
<feBlend mode="normal" in="SourceGraphic" in2="BackgroundImageFix" result="shape"/>
<feColorMatrix in="SourceAlpha" type="matrix" values="0 0 0 0 0 0 0 0 0 0 0 0 0 0 0 0 0 0 127 0" result="hardAlpha"/>
<feOffset/>
<feGaussianBlur stdDeviation="9.5"/>
<feComposite in2="hardAlpha" operator="arithmetic" k2="-1" k3="1"/>
<feColorMatrix type="matrix" values="0 0 0 0 0 0 0 0 0 0 0 0 0 0 0 0 0 0 0.12 0"/>
<feBlend mode="normal" in2="shape" result="effect1_innerShadow_103_146"/>
</filter>
</defs>
</svg>
