<svg width="96" height="96" viewBox="0 0 96 96" fill="none" xmlns="http://www.w3.org/2000/svg">
<rect width="96" height="96" fill="white"/>
<path d="M70.3864 72.4546L71.2787 71.2081C71.2787 71.2081 72.349 71.9465 72.9075 72.3482C73.4963 72.7717 74.2955 73.4318 74.2955 73.4318C78.8561 74.572 83.7424 83.0417 85.5341 92H40.7424C43.0227 84.0189 44.9773 76.6894 51.6553 73.4318C51.9811 73.2729 52.3068 73.4318 52.4697 73.4318C52.6326 73.4318 53.9356 72.1288 55.2386 71.4773C55.8076 71.1928 56.2159 72.7803 56.2159 72.7803L61.9167 88.4167H64.5227L70.3864 72.4546Z" fill="#0D3858"/>
<path d="M64.4396 88.4913H61.8522L55.6425 71.4145L63.4046 73.4844L70.6494 71.932L64.4396 88.4913Z" fill="#EFF4E0"/>
<g filter="url(#filter0_d_103_109)">
<path fill-rule="evenodd" clip-rule="evenodd" d="M63.3826 74.4091C62.7311 74.4091 62.4053 74.572 62.2425 74.8977C62.2424 75.2235 62.4053 75.3864 62.4053 75.875C61.5909 77.178 61.2652 77.8296 60.7766 79.1326C60.4508 80.4356 60.125 81.25 60.7765 82.553C61.9167 81.9015 62.5682 80.7614 62.894 79.6212C63.2197 78.4811 63.2197 77.6667 63.2197 76.5265H63.7084L64.0341 79.7841C64.3599 81.0871 64.5227 81.7386 65.8258 82.553C66.3144 81.5758 66.3144 80.4356 65.9887 79.1326C65.5 77.6667 65.3371 76.8523 64.3599 75.7121C64.3599 75.3941 64.5227 75.0606 64.3599 74.7349C64.197 74.572 63.8712 74.4091 63.3826 74.4091ZM62.7311 76.3636L61.5909 78.8068C61.1023 79.7841 60.9394 80.5985 60.9394 81.7386C61.4281 81.25 61.9167 80.4356 62.2425 79.4583C62.5682 78.3182 62.7311 77.5038 62.894 76.3636H62.7311ZM64.197 76.2008H64.0341V76.6894C64.197 77.8296 64.4312 78.5755 64.6856 79.7841C64.8485 80.5985 65.1743 81.0871 65.6629 81.5758C65.8258 80.5985 65.5 79.947 65.3372 79.1326C64.8485 77.6667 64.5227 77.3409 64.197 76.2008Z" fill="#CD8B7D"/>
</g>
<path d="M69.6144 70.3795C71.6843 69.8621 72.7192 69.3446 74.2717 68.3096C73.7542 68.3096 73.2367 68.3096 72.7192 67.7921C72.7192 64.6873 72.2017 63.1348 72.2017 60.03L70.6493 60.5474L67.5444 65.7222L68.0619 69.3446L69.6144 70.3795Z" fill="#331B16"/>
<path d="M54.0901 67.7921C53.5726 68.3096 53.0551 68.3096 52.0201 68.3096C54.0901 69.3446 55.6425 70.3795 58.2299 70.897L59.7823 66.2397L56.6775 61.0649L54.6075 59.5125L54.0901 67.7921Z" fill="#331B16"/>
<path d="M58.2299 69.3446L59.2648 66.2397L67.5445 65.2048L68.062 69.8621L63.4047 73.4844L58.2299 69.3446Z" fill="#EBA581"/>
<g filter="url(#filter1_d_103_109)">
<path d="M58.2299 68.8271L63.4047 73.4844L68.5795 69.3446L71.1669 71.4145L67.027 77.1068L63.4047 73.4844L59.2648 76.5893L55.125 71.4145L58.2299 68.8271Z" fill="#F1F2E0"/>
</g>
<path d="M53.0551 56.9251C53.0551 55.8901 53.5725 55.3726 54.09 55.3726C54.6075 55.3726 54.6075 55.3726 55.125 55.8901C55.6425 56.4076 55.6425 56.9251 55.6425 57.96L57.7124 51.2328H64.9571L71.6843 55.8901C71.6843 55.3726 72.5038 54.8636 73.2368 55.3726C73.7542 56.4076 73.644 56.8182 73.4811 57.9583C73.1553 59.4243 72.6667 60.4015 71.8523 61.053C71.3937 61.4199 70.875 61.053 70.875 61.053C70.875 61.053 70.8563 61.5824 70.6494 62.6174C70.1319 64.1698 69.0969 65.2048 68.062 66.2397C66.5095 67.7922 65.4746 68.8271 62.8872 68.8271C59.7823 67.7922 58.7473 66.7572 57.1949 64.1698C56.6774 63.1348 56.1599 62.6174 56.1599 61.0649C55.6425 61.0649 55.401 61.341 55.125 61.0649C54.09 60.03 53.5725 58.995 53.0551 56.9251Z" fill="#F8BB8E"/>
<path d="M63.9221 53.8202C67.027 55.8901 69.0969 54.8552 71.6843 55.8901C71.6843 55.8901 71.8523 55.3523 72.3409 55.1894C72.3409 53.637 72.2018 52.7852 71.1668 51.7503L66.5095 50.7153L63.9221 53.8202Z" fill="#331B16"/>
<path d="M58.2298 50.7153L55.6424 57.96C55.6424 56.4076 55.6424 55.8901 54.6074 55.3726C55.1249 53.8202 55.1249 52.2678 55.6424 51.2328L58.2298 50.7153Z" fill="#331B16"/>
<path d="M63.922 38.8133L44.2578 45.023L54.6074 49.6804H72.2017L81.5163 45.023L63.922 38.8133Z" fill="#134A73"/>
<g filter="url(#filter2_i_103_109)">
<path d="M54.913 46.0682V53.2349C58.5353 51.1649 60.8173 52.2677 63.4047 54.3377C66.5096 52.2677 68.5795 52.2677 72.2019 53.3027V46.058C65.9921 43.9881 62.1577 43.9983 54.913 46.0682Z" fill="#0D3858"/>
</g>
<circle cx="81.625" cy="29.2917" r="14.1705" fill="#00B1C3"/>
<path d="M90.5833 29.4545C90.5833 34.3127 86.646 38.25 81.7879 38.25C76.9298 38.25 72.9924 34.3127 72.9924 29.4545C72.9924 24.5964 76.9298 20.6591 81.7879 20.6591C86.646 20.6591 90.5833 24.5964 90.5833 29.4545ZM74.9752 27.2591L75.2968 27.8535C75.5816 28.3517 76.0499 28.7193 76.6034 28.8773L78.5617 29.4442C79.1836 29.6126 79.589 30.152 79.589 30.767V32.1378C79.589 32.5158 79.802 32.8594 80.1387 32.9968C80.4754 33.1961 80.6885 33.5396 80.6885 33.9176V35.2575C80.6885 35.7935 81.2004 36.1783 81.7157 36.0305C82.2723 35.8725 82.6984 35.4018 82.8392 34.8727L82.9354 34.4879C83.0797 33.9072 83.4577 33.4091 83.9764 33.1102L84.2547 32.9521C84.7701 32.6601 85.0862 32.1138 85.0862 31.5194V31.2377C85.0862 30.7979 84.911 30.3788 84.6017 30.0695L84.4712 29.939C84.162 29.6298 83.7394 29.4236 83.303 29.4236H81.7913C81.4409 29.4236 81.0629 29.3549 80.7297 29.1659L79.5444 28.4857C79.3966 28.4032 79.2832 28.2658 79.2317 28.1043C79.1218 27.7745 79.2695 27.4172 79.5787 27.2591L79.7849 27.1595C80.0116 27.0461 80.2727 27.0255 80.4857 27.1079L81.3138 27.3725C81.5921 27.4653 81.9013 27.3588 82.0662 27.1148C82.2277 26.8709 82.2105 26.5514 82.025 26.328L81.5577 25.7715C81.2141 25.3592 81.2176 24.7579 81.568 24.3525L82.1074 23.721C82.4098 23.3682 82.4579 22.8635 82.2277 22.4601L82.1452 22.3172C81.9975 22.3113 81.9081 22.3082 81.7879 22.3082C78.5961 22.3082 75.8922 24.4006 74.9752 27.2591ZM88.0272 25.9673L87.1476 26.3212C86.6082 26.5376 86.3299 27.1354 86.512 27.6886L87.0926 29.4305C87.2129 29.7878 87.5049 30.0592 87.8691 30.152L88.8724 30.3994C88.9136 30.0902 88.9342 29.7741 88.9342 29.4545C88.9342 28.1902 88.6044 27.0014 88.0272 25.9673Z" fill="white"/>
<circle cx="65.6629" cy="19.8447" r="10.2614" fill="#E66B63"/>
<path d="M70.3864 20.6591H61.2652C60.9064 20.6591 60.6136 20.9519 60.6136 21.3106V23.9167C60.6136 24.2754 60.9064 24.5682 61.2652 24.5682H70.3864C70.7451 24.5682 71.0379 24.2754 71.0379 23.9167V21.3106C71.0379 20.9523 70.7447 20.6591 70.3864 20.6591ZM67.7803 23.1023C67.5105 23.1023 67.2917 22.8834 67.2917 22.6136C67.2917 22.3439 67.5105 22.125 67.7803 22.125C68.0501 22.125 68.269 22.3439 68.269 22.6136C68.269 22.8834 68.0511 23.1023 67.7803 23.1023ZM69.0833 23.1023C68.8136 23.1023 68.5947 22.8834 68.5947 22.6136C68.5947 22.3439 68.8136 22.125 69.0833 22.125C69.3531 22.125 69.572 22.3439 69.572 22.6136C69.572 22.8834 69.3541 23.1023 69.0833 23.1023ZM70.3864 15.447H61.2652C60.9064 15.447 60.6136 15.7397 60.6136 16.0985V18.7045C60.6136 19.0633 60.9064 19.3561 61.2652 19.3561H70.3864C70.7451 19.3561 71.0379 19.0633 71.0379 18.7045V16.0985C71.0379 15.7397 70.7447 15.447 70.3864 15.447ZM67.7803 17.8902C67.5105 17.8902 67.2917 17.6713 67.2917 17.4015C67.2917 17.1317 67.5116 16.9129 67.7803 16.9129C68.0491 16.9129 68.269 17.1328 68.269 17.4015C68.269 17.6703 68.0511 17.8902 67.7803 17.8902ZM69.0833 17.8902C68.8136 17.8902 68.5947 17.6713 68.5947 17.4015C68.5947 17.1317 68.8146 16.9129 69.0833 16.9129C69.3521 16.9129 69.572 17.1328 69.572 17.4015C69.572 17.6703 69.3541 17.8902 69.0833 17.8902Z" fill="white"/>
<circle cx="46.769" cy="20.1705" r="14.1705" fill="#F9B234"/>
<path d="M46.7684 19.2746C46.1925 19.2746 45.6918 19.751 45.6918 20.3333C45.6918 20.9156 46.1925 21.392 46.7684 21.392C47.3453 21.392 47.8155 20.9163 47.8155 20.3333C47.8155 19.7504 47.3443 19.2746 46.7684 19.2746ZM53.7778 16.0985C53.4217 15.4533 52.4521 14.4194 49.972 14.7129C49.2685 13.0176 48.1951 11.8636 46.7684 11.8636C45.3416 11.8636 44.2683 13.0176 43.5648 14.7129C41.0856 14.4237 40.116 15.4533 39.76 16.0985C39.224 17.0705 39.2721 18.5176 40.5856 20.3333C39.2724 22.149 39.224 23.5965 39.76 24.5682C40.7132 26.3012 43.0847 26.0117 43.5657 25.9538C44.2683 27.6484 45.3416 28.803 46.7684 28.803C48.1951 28.803 49.2681 27.649 49.972 25.9534C50.4498 26.0107 52.8222 26.3018 53.7778 24.5682C54.3138 23.5962 54.2657 22.1487 52.9521 20.3333C54.2653 18.517 54.3112 17.0712 53.7778 16.0985ZM41.511 23.5095C41.3801 23.2696 41.5069 22.6906 42.0019 21.9131C42.2269 22.1282 42.4643 22.3389 42.7179 22.5457C42.771 23.0006 42.8488 23.4433 42.9388 23.8734C42.1315 23.9032 41.6337 23.7278 41.511 23.5095ZM42.7172 18.12C42.4652 18.3284 42.2264 18.5401 42.0006 18.7519C41.5071 17.9777 41.3801 17.3954 41.511 17.1572C41.6215 16.9546 42.047 16.7767 42.7506 16.7767C42.8079 16.7767 42.8774 16.7891 42.9388 16.7891C42.8448 17.23 42.7696 17.6733 42.7172 18.12ZM46.7684 13.9811C47.0793 13.9811 47.4965 14.4277 47.8771 15.2135C47.5079 15.3375 47.1414 15.4798 46.7684 15.6386C46.3953 15.4798 46.0288 15.3375 45.6591 15.2118C46.0387 14.4277 46.4575 13.9811 46.7684 13.9811ZM46.7684 26.6856C46.4574 26.6856 46.0403 26.239 45.6597 25.4532C46.0288 25.3291 46.3953 25.1869 46.7684 25.0281C47.1408 25.1893 47.5089 25.3303 47.8771 25.4545C47.4981 26.239 47.0793 26.6856 46.7684 26.6856ZM46.7684 22.9801C45.3243 22.9801 44.1499 21.793 44.1499 20.3333C44.1499 18.8736 45.3253 17.6866 46.7684 17.6866C48.2115 17.6866 49.3869 18.8736 49.3869 20.3333C49.3869 21.793 48.2115 22.9801 46.7684 22.9801ZM52.0271 23.5095C51.9084 23.7287 51.4053 23.9025 50.5993 23.8734C50.6893 23.4731 50.7671 23.0006 50.8202 22.5457C51.0739 22.3389 51.3111 22.1279 51.5362 21.9131C52.0303 22.689 52.1579 23.2713 52.0271 23.5095ZM51.5362 18.7519C51.3112 18.5368 51.0738 18.3261 50.8202 18.1193C50.767 17.6727 50.6934 17.23 50.5993 16.7876C50.6606 16.7876 50.7302 16.7752 50.7875 16.7752C51.491 16.7752 51.9168 16.9531 52.0271 17.1557C52.1579 17.3954 52.0303 17.9777 51.5362 18.7519Z" fill="white"/>
<circle cx="27.7121" cy="21.9621" r="10.0985" fill="#8CD0E7"/>
<path d="M34.8089 19.1905L28.1898 16.8357C27.8683 16.7214 27.5178 16.7214 27.1963 16.8357L20.5955 19.1905C20.3705 19.272 20.2197 19.4861 20.2197 19.7281C20.2197 19.9701 20.3705 20.1853 20.5955 20.2654L22.0008 20.7659C21.7224 21.1335 21.5265 21.5608 21.426 22.0213C21.1575 22.1341 20.969 22.3994 20.969 22.7065C20.969 22.9381 21.0817 23.1368 21.2485 23.2734L20.6672 26.7405C20.629 26.9671 20.8051 27.1742 21.0366 27.1742H22.3998C22.6313 27.1742 22.8074 26.9676 22.7693 26.7407L22.1879 23.2736C22.3548 23.137 22.4675 22.9183 22.4675 22.7065C22.4675 22.4671 22.3463 22.2637 22.1696 22.1274C22.2692 21.7141 22.4712 21.3404 22.7536 21.033L27.2162 22.6207C27.5377 22.7349 27.8882 22.7349 28.2097 22.6207L34.8288 20.2658C35.0547 20.1841 35.2046 19.9701 35.2046 19.7281C35.2046 19.4861 35.0547 19.272 34.8089 19.1905ZM28.4403 23.3208C28.2202 23.4069 27.9674 23.4512 27.7122 23.4512C27.4565 23.4512 27.2043 23.4077 26.9629 23.3219L23.5632 22.1132L23.2167 25.436C23.2167 26.397 25.2092 27.1742 27.7122 27.1742C30.1729 27.1742 32.2076 26.397 32.2076 25.4367L31.8616 22.1115L28.4403 23.3208Z" fill="white"/>
<circle cx="20.7083" cy="39.7159" r="14.1705" fill="#EA5B0C"/>
<path d="M29.3409 39.849C29.3409 39.9086 29.3111 39.9383 29.3111 39.9681C29.3277 41.1757 28.2292 41.9664 27.0216 41.9664H23.7826C22.9059 41.9664 22.1946 42.7075 22.1946 43.5843C22.1946 43.6968 22.2078 43.806 22.2277 43.9118C22.3004 44.2493 22.4427 44.5471 22.5883 44.9011C22.7868 45.3576 22.9886 45.8109 22.9886 46.2906C22.9886 47.346 22.274 48.2989 21.2219 48.3419C21.1061 48.3452 20.987 48.3485 20.8712 48.3485C16.193 48.3485 12.4015 44.557 12.4015 39.8788C12.4015 35.2006 16.193 31.4091 20.8712 31.4091C25.5494 31.4091 29.3409 35.2006 29.3409 39.8788V39.849ZM15.5776 39.849C14.993 39.849 14.5189 40.3519 14.5189 40.9077C14.5189 41.5231 14.993 41.9664 15.5776 41.9664C16.1632 41.9664 16.6363 41.5231 16.6363 40.9077C16.6363 40.3519 16.1632 39.849 15.5776 39.849ZM16.6363 37.7316C17.2219 37.7316 17.6951 37.2883 17.6951 36.6729C17.6951 36.1171 17.2219 35.6142 16.6363 35.6142C16.0507 35.6142 15.5776 36.1171 15.5776 36.6729C15.5776 37.2883 16.0507 37.7316 16.6363 37.7316ZM20.8712 33.4967C20.2856 33.4967 19.8125 34.0006 19.8125 34.5555C19.8125 35.1708 20.2856 35.6142 20.8712 35.6142C21.4568 35.6142 21.9299 35.1708 21.9299 34.5555C21.9299 34.0006 21.4568 33.4967 20.8712 33.4967ZM25.106 37.7316C25.6916 37.7316 26.1647 37.2883 26.1647 36.6729C26.1647 36.1171 25.6916 35.6142 25.106 35.6142C24.5204 35.6142 24.0473 36.1171 24.0473 36.6729C24.0473 37.2883 24.5204 37.7316 25.106 37.7316Z" fill="white"/>
<circle cx="11.2614" cy="56.0038" r="10.2614" fill="#7C930F"/>
<path d="M7.19158 62.5284C7.17031 62.7822 7.31093 63.0058 7.49297 63.0058L8.09914 63.0075C8.25276 63.0075 8.38672 62.8517 8.40563 62.638C8.41981 62.5077 8.44097 62.3395 8.47169 62.1525H14.3708C14.4015 62.3362 14.4257 62.5081 14.4375 62.6383C14.4588 62.828 14.5858 63.0107 14.7395 63.0075L15.3532 63.0059C15.5352 63.0059 15.6769 62.7821 15.6555 62.5284C15.5681 61.5165 15.1687 59.1055 13.4037 56.9785C13.0728 57.3091 12.7045 57.6297 12.298 57.9269C12.4161 58.0504 12.5165 58.1782 12.6205 58.3049H10.2088C10.6106 57.8208 11.0981 57.3529 11.6959 56.9321C14.9499 54.6475 15.5474 51.0856 15.657 49.8057C15.6783 49.5519 15.538 49.328 15.356 49.328L14.7447 49.3258C14.5911 49.3258 14.4641 49.4816 14.443 49.6954C14.4288 49.8256 14.4076 49.9938 14.3793 50.1809H8.47012C8.44176 49.9938 8.41982 49.8284 8.40564 49.6948C8.38447 49.4811 8.25722 49.3225 8.10369 49.3258L7.49374 49.3294C7.31175 49.3294 7.17061 49.5526 7.19198 49.8063C7.28888 50.9518 7.78359 53.9159 10.2153 56.1685C7.78586 58.4187 7.2885 61.382 7.19158 62.5284ZM11.4227 55.1963C10.9481 54.8275 10.5473 54.4374 10.2088 54.0286H12.6384C12.3019 54.4374 11.8973 54.8329 11.4227 55.1963ZM13.9034 51.8909C13.7923 52.168 13.6598 52.4553 13.5063 52.722H9.32776C9.17177 52.4315 9.03847 52.144 8.92976 51.8669L13.9034 51.8909ZM8.94772 60.4174C9.0588 60.1403 9.1886 59.8528 9.34232 59.5624H13.4906C13.649 59.8528 13.7833 60.1403 13.892 60.4174H8.94772Z" fill="white"/>
<circle cx="20.0568" cy="70.6629" r="14.1705" fill="#E64646"/>
<path d="M28.3023 77.0342L24.3421 73.0744C25.2426 71.7376 25.687 70.0673 25.4491 68.2875C25.0435 65.2603 22.5621 62.7967 19.5315 62.4131C15.0257 61.843 11.2368 65.6314 11.807 70.1368C12.1908 73.1683 14.6549 75.6514 17.6829 76.055C19.4628 76.2928 21.1336 75.8487 22.4703 74.9481L26.4305 78.9079C26.9473 79.4247 27.7853 79.4247 28.3021 78.9079C28.8185 78.3905 28.8185 77.5503 28.3023 77.0342ZM14.367 69.237C14.367 66.9021 16.2667 65.0026 18.6018 65.0026C20.937 65.0026 22.8367 66.9021 22.8367 69.237C22.8367 71.5718 20.937 73.4714 18.6018 73.4714C16.2667 73.4714 14.367 71.5725 14.367 69.237Z" fill="white"/>
<defs>
<filter id="filter0_d_103_109" x="58.4004" y="74.4091" width="9.81531" height="12.1439" filterUnits="userSpaceOnUse" color-interpolation-filters="sRGB">
<feFlood flood-opacity="0" result="BackgroundImageFix"/>
<feColorMatrix in="SourceAlpha" type="matrix" values="0 0 0 0 0 0 0 0 0 0 0 0 0 0 0 0 0 0 127 0" result="hardAlpha"/>
<feOffset dy="2"/>
<feGaussianBlur stdDeviation="1"/>
<feComposite in2="hardAlpha" operator="out"/>
<feColorMatrix type="matrix" values="0 0 0 0 0 0 0 0 0 0 0 0 0 0 0 0 0 0 0.25 0"/>
<feBlend mode="normal" in2="BackgroundImageFix" result="effect1_dropShadow_103_109"/>
<feBlend mode="normal" in="SourceGraphic" in2="effect1_dropShadow_103_109" result="shape"/>
</filter>
<filter id="filter1_d_103_109" x="51.125" y="68.8271" width="24.0419" height="16.2797" filterUnits="userSpaceOnUse" color-interpolation-filters="sRGB">
<feFlood flood-opacity="0" result="BackgroundImageFix"/>
<feColorMatrix in="SourceAlpha" type="matrix" values="0 0 0 0 0 0 0 0 0 0 0 0 0 0 0 0 0 0 127 0" result="hardAlpha"/>
<feOffset dy="4"/>
<feGaussianBlur stdDeviation="2"/>
<feComposite in2="hardAlpha" operator="out"/>
<feColorMatrix type="matrix" values="0 0 0 0 0 0 0 0 0 0 0 0 0 0 0 0 0 0 0.25 0"/>
<feBlend mode="normal" in2="BackgroundImageFix" result="effect1_dropShadow_103_109"/>
<feBlend mode="normal" in="SourceGraphic" in2="effect1_dropShadow_103_109" result="shape"/>
</filter>
<filter id="filter2_i_103_109" x="54.913" y="44.5107" width="17.2889" height="9.827" filterUnits="userSpaceOnUse" color-interpolation-filters="sRGB">
<feFlood flood-opacity="0" result="BackgroundImageFix"/>
<feBlend mode="normal" in="SourceGraphic" in2="BackgroundImageFix" result="shape"/>
<feColorMatrix in="SourceAlpha" type="matrix" values="0 0 0 0 0 0 0 0 0 0 0 0 0 0 0 0 0 0 127 0" result="hardAlpha"/>
<feOffset/>
<feGaussianBlur stdDeviation="9.5"/>
<feComposite in2="hardAlpha" operator="arithmetic" k2="-1" k3="1"/>
<feColorMatrix type="matrix" values="0 0 0 0 0 0 0 0 0 0 0 0 0 0 0 0 0 0 0.12 0"/>
<feBlend mode="normal" in2="shape" result="effect1_innerShadow_103_109"/>
</filter>
</defs>
</svg>
